<svg xmlns="http://www.w3.org/2000/svg" width="1920" height="1080" viewBox="0 0 1920 1080">
  <defs>
    <radialGradient id="galaxy1" cx="50%" cy="45%" r="60%">
      <stop offset="0%" stop-color="#1a0a3e" stop-opacity="1"/>
      <stop offset="40%" stop-color="#0d0520" stop-opacity="1"/>
      <stop offset="100%" stop-color="#04020f" stop-opacity="1"/>
    </radialGradient>
    <radialGradient id="nebula1" cx="30%" cy="40%" r="40%">
      <stop offset="0%" stop-color="#7c3aed" stop-opacity="0.25"/>
      <stop offset="50%" stop-color="#4c1d95" stop-opacity="0.12"/>
      <stop offset="100%" stop-color="#000" stop-opacity="0"/>
    </radialGradient>
    <radialGradient id="nebula2" cx="75%" cy="60%" r="35%">
      <stop offset="0%" stop-color="#c026d3" stop-opacity="0.2"/>
      <stop offset="50%" stop-color="#86198f" stop-opacity="0.1"/>
      <stop offset="100%" stop-color="#000" stop-opacity="0"/>
    </radialGradient>
    <radialGradient id="nebula3" cx="60%" cy="25%" r="30%">
      <stop offset="0%" stop-color="#1d4ed8" stop-opacity="0.18"/>
      <stop offset="60%" stop-color="#1e3a8a" stop-opacity="0.08"/>
      <stop offset="100%" stop-color="#000" stop-opacity="0"/>
    </radialGradient>
    <radialGradient id="nebula4" cx="15%" cy="70%" r="28%">
      <stop offset="0%" stop-color="#0891b2" stop-opacity="0.15"/>
      <stop offset="60%" stop-color="#0e7490" stop-opacity="0.06"/>
      <stop offset="100%" stop-color="#000" stop-opacity="0"/>
    </radialGradient>
    <radialGradient id="milkyway" cx="50%" cy="50%" r="50%">
      <stop offset="0%" stop-color="#a78bfa" stop-opacity="0.12"/>
      <stop offset="40%" stop-color="#7c3aed" stop-opacity="0.06"/>
      <stop offset="100%" stop-color="#000" stop-opacity="0"/>
    </radialGradient>
    <filter id="glow-sm">
      <feGaussianBlur stdDeviation="1.5" result="blur"/>
      <feMerge><feMergeNode in="blur"/><feMergeNode in="SourceGraphic"/></feMerge>
    </filter>
    <filter id="glow-md">
      <feGaussianBlur stdDeviation="3" result="blur"/>
      <feMerge><feMergeNode in="blur"/><feMergeNode in="SourceGraphic"/></feMerge>
    </filter>
    <filter id="glow-lg">
      <feGaussianBlur stdDeviation="6" result="blur"/>
      <feMerge><feMergeNode in="blur"/><feMergeNode in="SourceGraphic"/></feMerge>
    </filter>
    <filter id="nebula-blur">
      <feGaussianBlur stdDeviation="40"/>
    </filter>
    <filter id="milkyway-blur">
      <feGaussianBlur stdDeviation="25"/>
    </filter>
  </defs>

  <!-- 배경 -->
  <rect width="1920" height="1080" fill="url(#galaxy1)"/>

  <!-- 은하수 띠 -->
  <g filter="url(#milkyway-blur)" opacity="0.7">
    <ellipse cx="960" cy="520" rx="900" ry="90" fill="#a78bfa" fill-opacity="0.08"/>
    <ellipse cx="880" cy="510" rx="750" ry="65" fill="#c4b5fd" fill-opacity="0.06"/>
    <ellipse cx="1050" cy="530" rx="650" ry="55" fill="#7c3aed" fill-opacity="0.07"/>
    <ellipse cx="960" cy="515" rx="500" ry="40" fill="#ddd6fe" fill-opacity="0.05"/>
  </g>

  <!-- 성운들 -->
  <rect width="1920" height="1080" fill="url(#nebula1)" filter="url(#nebula-blur)"/>
  <rect width="1920" height="1080" fill="url(#nebula2)" filter="url(#nebula-blur)"/>
  <rect width="1920" height="1080" fill="url(#nebula3)" filter="url(#nebula-blur)"/>
  <rect width="1920" height="1080" fill="url(#nebula4)" filter="url(#nebula-blur)"/>

  <!-- 추가 성운 구름 -->
  <g filter="url(#nebula-blur)" opacity="0.6">
    <ellipse cx="400" cy="300" rx="280" ry="120" fill="#7c3aed" fill-opacity="0.15"/>
    <ellipse cx="1600" cy="200" rx="220" ry="100" fill="#c026d3" fill-opacity="0.12"/>
    <ellipse cx="1200" cy="800" rx="300" ry="130" fill="#1d4ed8" fill-opacity="0.13"/>
    <ellipse cx="200" cy="700" rx="200" ry="90" fill="#0891b2" fill-opacity="0.1"/>
    <ellipse cx="1750" cy="600" rx="180" ry="80" fill="#7c3aed" fill-opacity="0.11"/>
  </g>

  <!-- 별들 - 아주 작은 것들 (배경) -->
  <g opacity="0.5">
    <circle cx="45" cy="23" r="0.6" fill="#fff"/><circle cx="123" cy="67" r="0.5" fill="#fff"/>
    <circle cx="198" cy="34" r="0.6" fill="#ddd6fe"/><circle cx="267" cy="89" r="0.5" fill="#fff"/>
    <circle cx="345" cy="12" r="0.6" fill="#fff"/><circle cx="412" cy="56" r="0.5" fill="#ddd6fe"/>
    <circle cx="489" cy="78" r="0.6" fill="#fff"/><circle cx="534" cy="23" r="0.5" fill="#fff"/>
    <circle cx="612" cy="45" r="0.6" fill="#ddd6fe"/><circle cx="678" cy="91" r="0.5" fill="#fff"/>
    <circle cx="745" cy="18" r="0.6" fill="#fff"/><circle cx="823" cy="62" r="0.5" fill="#ddd6fe"/>
    <circle cx="889" cy="37" r="0.6" fill="#fff"/><circle cx="956" cy="83" r="0.5" fill="#fff"/>
    <circle cx="1034" cy="25" r="0.6" fill="#ddd6fe"/><circle cx="1098" cy="70" r="0.5" fill="#fff"/>
    <circle cx="1167" cy="42" r="0.6" fill="#fff"/><circle cx="1234" cy="87" r="0.5" fill="#ddd6fe"/>
    <circle cx="1312" cy="15" r="0.6" fill="#fff"/><circle cx="1378" cy="58" r="0.5" fill="#fff"/>
    <circle cx="1445" cy="33" r="0.6" fill="#ddd6fe"/><circle cx="1523" cy="76" r="0.5" fill="#fff"/>
    <circle cx="1589" cy="21" r="0.6" fill="#fff"/><circle cx="1656" cy="64" r="0.5" fill="#ddd6fe"/>
    <circle cx="1734" cy="39" r="0.6" fill="#fff"/><circle cx="1801" cy="82" r="0.5" fill="#fff"/>
    <circle cx="1867" cy="17" r="0.6" fill="#ddd6fe"/><circle cx="1912" cy="55" r="0.5" fill="#fff"/>
    <circle cx="78" cy="134" r="0.5" fill="#fff"/><circle cx="156" cy="167" r="0.6" fill="#ddd6fe"/>
    <circle cx="234" cy="145" r="0.5" fill="#fff"/><circle cx="301" cy="189" r="0.6" fill="#fff"/>
    <circle cx="378" cy="112" r="0.5" fill="#ddd6fe"/><circle cx="456" cy="156" r="0.6" fill="#fff"/>
    <circle cx="523" cy="134" r="0.5" fill="#fff"/><circle cx="601" cy="178" r="0.6" fill="#ddd6fe"/>
    <circle cx="667" cy="123" r="0.5" fill="#fff"/><circle cx="745" cy="167" r="0.6" fill="#fff"/>
    <circle cx="812" cy="141" r="0.5" fill="#ddd6fe"/><circle cx="890" cy="185" r="0.6" fill="#fff"/>
    <circle cx="956" cy="129" r="0.5" fill="#fff"/><circle cx="1034" cy="173" r="0.6" fill="#ddd6fe"/>
    <circle cx="1101" cy="147" r="0.5" fill="#fff"/><circle cx="1178" cy="191" r="0.6" fill="#fff"/>
    <circle cx="1245" cy="125" r="0.5" fill="#ddd6fe"/><circle cx="1323" cy="169" r="0.6" fill="#fff"/>
    <circle cx="1389" cy="143" r="0.5" fill="#fff"/><circle cx="1467" cy="187" r="0.6" fill="#ddd6fe"/>
    <circle cx="1534" cy="131" r="0.5" fill="#fff"/><circle cx="1612" cy="175" r="0.6" fill="#fff"/>
    <circle cx="1678" cy="149" r="0.5" fill="#ddd6fe"/><circle cx="1756" cy="193" r="0.6" fill="#fff"/>
    <circle cx="1823" cy="127" r="0.5" fill="#fff"/><circle cx="1890" cy="171" r="0.6" fill="#ddd6fe"/>
  </g>

  <!-- 별들 - 중간 크기 -->
  <g filter="url(#glow-sm)">
    <circle cx="89" cy="234" r="1.2" fill="#e8d5ff" opacity="0.9"/>
    <circle cx="234" cy="312" r="1" fill="#fff" opacity="0.8"/>
    <circle cx="367" cy="189" r="1.3" fill="#ffd0a0" opacity="0.85"/>
    <circle cx="489" cy="267" r="1.1" fill="#a0c8ff" opacity="0.9"/>
    <circle cx="623" cy="223" r="1.2" fill="#fff" opacity="0.85"/>
    <circle cx="756" cy="345" r="1" fill="#e8d5ff" opacity="0.8"/>
    <circle cx="889" cy="278" r="1.3" fill="#fff" opacity="0.9"/>
    <circle cx="1012" cy="312" r="1.1" fill="#ffd0a0" opacity="0.85"/>
    <circle cx="1145" cy="234" r="1.2" fill="#a0c8ff" opacity="0.9"/>
    <circle cx="1278" cy="356" r="1" fill="#fff" opacity="0.8"/>
    <circle cx="1412" cy="289" r="1.3" fill="#e8d5ff" opacity="0.85"/>
    <circle cx="1545" cy="223" r="1.1" fill="#fff" opacity="0.9"/>
    <circle cx="1678" cy="312" r="1.2" fill="#ffd0a0" opacity="0.85"/>
    <circle cx="1812" cy="245" r="1" fill="#a0c8ff" opacity="0.8"/>
    <circle cx="145" cy="456" r="1.2" fill="#fff" opacity="0.9"/>
    <circle cx="289" cy="523" r="1.1" fill="#e8d5ff" opacity="0.85"/>
    <circle cx="423" cy="467" r="1.3" fill="#a0c8ff" opacity="0.9"/>
    <circle cx="556" cy="534" r="1" fill="#fff" opacity="0.8"/>
    <circle cx="690" cy="489" r="1.2" fill="#ffd0a0" opacity="0.85"/>
    <circle cx="823" cy="556" r="1.1" fill="#e8d5ff" opacity="0.9"/>
    <circle cx="956" cy="478" r="1.3" fill="#fff" opacity="0.85"/>
    <circle cx="1089" cy="545" r="1" fill="#a0c8ff" opacity="0.8"/>
    <circle cx="1223" cy="489" r="1.2" fill="#fff" opacity="0.9"/>
    <circle cx="1356" cy="534" r="1.1" fill="#e8d5ff" opacity="0.85"/>
    <circle cx="1489" cy="467" r="1.3" fill="#ffd0a0" opacity="0.9"/>
    <circle cx="1623" cy="523" r="1" fill="#fff" opacity="0.8"/>
    <circle cx="1756" cy="478" r="1.2" fill="#a0c8ff" opacity="0.85"/>
    <circle cx="1878" cy="534" r="1.1" fill="#e8d5ff" opacity="0.9"/>
    <circle cx="67" cy="678" r="1.2" fill="#fff" opacity="0.85"/>
    <circle cx="200" cy="734" r="1" fill="#ffd0a0" opacity="0.8"/>
    <circle cx="334" cy="689" r="1.3" fill="#e8d5ff" opacity="0.9"/>
    <circle cx="467" cy="756" r="1.1" fill="#fff" opacity="0.85"/>
    <circle cx="601" cy="712" r="1.2" fill="#a0c8ff" opacity="0.9"/>
    <circle cx="734" cy="767" r="1" fill="#fff" opacity="0.8"/>
    <circle cx="867" cy="723" r="1.3" fill="#e8d5ff" opacity="0.85"/>
    <circle cx="1001" cy="778" r="1.1" fill="#ffd0a0" opacity="0.9"/>
    <circle cx="1134" cy="712" r="1.2" fill="#fff" opacity="0.85"/>
    <circle cx="1267" cy="756" r="1" fill="#a0c8ff" opacity="0.8"/>
    <circle cx="1401" cy="723" r="1.3" fill="#e8d5ff" opacity="0.9"/>
    <circle cx="1534" cy="778" r="1.1" fill="#fff" opacity="0.85"/>
    <circle cx="1667" cy="712" r="1.2" fill="#ffd0a0" opacity="0.9"/>
    <circle cx="1801" cy="756" r="1" fill="#e8d5ff" opacity="0.8"/>
    <circle cx="112" cy="889" r="1.2" fill="#fff" opacity="0.85"/>
    <circle cx="245" cy="934" r="1.1" fill="#a0c8ff" opacity="0.9"/>
    <circle cx="378" cy="878" r="1.3" fill="#e8d5ff" opacity="0.85"/>
    <circle cx="512" cy="923" r="1" fill="#fff" opacity="0.8"/>
    <circle cx="645" cy="889" r="1.2" fill="#ffd0a0" opacity="0.85"/>
    <circle cx="778" cy="934" r="1.1" fill="#fff" opacity="0.9"/>
    <circle cx="912" cy="901" r="1.3" fill="#e8d5ff" opacity="0.85"/>
    <circle cx="1045" cy="956" r="1" fill="#a0c8ff" opacity="0.8"/>
    <circle cx="1178" cy="912" r="1.2" fill="#fff" opacity="0.9"/>
    <circle cx="1312" cy="945" r="1.1" fill="#ffd0a0" opacity="0.85"/>
    <circle cx="1445" cy="889" r="1.3" fill="#e8d5ff" opacity="0.9"/>
    <circle cx="1578" cy="934" r="1" fill="#fff" opacity="0.8"/>
    <circle cx="1712" cy="901" r="1.2" fill="#a0c8ff" opacity="0.85"/>
    <circle cx="1845" cy="956" r="1.1" fill="#e8d5ff" opacity="0.9"/>
  </g>

  <!-- 밝은 별들 -->
  <g filter="url(#glow-md)">
    <circle cx="156" cy="89" r="2" fill="#fff" opacity="0.95"/>
    <circle cx="445" cy="134" r="2.5" fill="#ffd0a0" opacity="0.9"/>
    <circle cx="712" cy="67" r="2" fill="#a0c8ff" opacity="0.95"/>
    <circle cx="978" cy="112" r="2.3" fill="#fff" opacity="0.9"/>
    <circle cx="1234" cy="78" r="2" fill="#e8d5ff" opacity="0.95"/>
    <circle cx="1512" cy="123" r="2.5" fill="#ffd0a0" opacity="0.9"/>
    <circle cx="1778" cy="89" r="2" fill="#fff" opacity="0.95"/>
    <circle cx="89" cy="389" r="2.2" fill="#a0c8ff" opacity="0.9"/>
    <circle cx="334" cy="423" r="2" fill="#fff" opacity="0.95"/>
    <circle cx="601" cy="356" r="2.5" fill="#e8d5ff" opacity="0.9"/>
    <circle cx="867" cy="412" r="2" fill="#fff" opacity="0.95"/>
    <circle cx="1134" cy="378" r="2.3" fill="#ffd0a0" opacity="0.9"/>
    <circle cx="1401" cy="423" r="2" fill="#a0c8ff" opacity="0.95"/>
    <circle cx="1667" cy="389" r="2.5" fill="#fff" opacity="0.9"/>
    <circle cx="1889" cy="412" r="2" fill="#e8d5ff" opacity="0.95"/>
    <circle cx="178" cy="623" r="2.2" fill="#fff" opacity="0.9"/>
    <circle cx="445" cy="667" r="2" fill="#ffd0a0" opacity="0.95"/>
    <circle cx="712" cy="601" r="2.5" fill="#e8d5ff" opacity="0.9"/>
    <circle cx="978" cy="645" r="2" fill="#fff" opacity="0.95"/>
    <circle cx="1245" cy="612" r="2.3" fill="#a0c8ff" opacity="0.9"/>
    <circle cx="1512" cy="656" r="2" fill="#fff" opacity="0.95"/>
    <circle cx="1778" cy="623" r="2.5" fill="#ffd0a0" opacity="0.9"/>
    <circle cx="112" cy="845" r="2" fill="#e8d5ff" opacity="0.95"/>
    <circle cx="378" cy="889" r="2.2" fill="#fff" opacity="0.9"/>
    <circle cx="645" cy="856" r="2" fill="#a0c8ff" opacity="0.95"/>
    <circle cx="912" cy="901" r="2.5" fill="#fff" opacity="0.9"/>
    <circle cx="1178" cy="867" r="2" fill="#e8d5ff" opacity="0.95"/>
    <circle cx="1445" cy="912" r="2.3" fill="#ffd0a0" opacity="0.9"/>
    <circle cx="1712" cy="878" r="2" fill="#fff" opacity="0.95"/>
  </g>

  <!-- 아주 밝은 별들 (십자 빛줄기) -->
  <g filter="url(#glow-lg)">
    <!-- 별 1 -->
    <circle cx="267" cy="178" r="3.5" fill="#fff" opacity="1"/>
    <line x1="267" y1="165" x2="267" y2="191" stroke="#fff" stroke-width="0.8" opacity="0.6"/>
    <line x1="254" y1="178" x2="280" y2="178" stroke="#fff" stroke-width="0.8" opacity="0.6"/>
    <!-- 별 2 -->
    <circle cx="823" cy="234" r="4" fill="#ffd0a0" opacity="1"/>
    <line x1="823" y1="218" x2="823" y2="250" stroke="#ffd0a0" stroke-width="0.8" opacity="0.5"/>
    <line x1="807" y1="234" x2="839" y2="234" stroke="#ffd0a0" stroke-width="0.8" opacity="0.5"/>
    <!-- 별 3 -->
    <circle cx="1456" cy="156" r="3.5" fill="#a0c8ff" opacity="1"/>
    <line x1="1456" y1="143" x2="1456" y2="169" stroke="#a0c8ff" stroke-width="0.8" opacity="0.6"/>
    <line x1="1443" y1="156" x2="1469" y2="156" stroke="#a0c8ff" stroke-width="0.8" opacity="0.6"/>
    <!-- 별 4 -->
    <circle cx="1823" cy="312" r="3" fill="#fff" opacity="1"/>
    <line x1="1823" y1="301" x2="1823" y2="323" stroke="#fff" stroke-width="0.7" opacity="0.5"/>
    <line x1="1812" y1="312" x2="1834" y2="312" stroke="#fff" stroke-width="0.7" opacity="0.5"/>
    <!-- 별 5 -->
    <circle cx="512" cy="756" r="4" fill="#fff" opacity="1"/>
    <line x1="512" y1="740" x2="512" y2="772" stroke="#fff" stroke-width="0.8" opacity="0.5"/>
    <line x1="496" y1="756" x2="528" y2="756" stroke="#fff" stroke-width="0.8" opacity="0.5"/>
    <!-- 별 6 -->
    <circle cx="1289" cy="689" r="3.5" fill="#ffd0a0" opacity="1"/>
    <line x1="1289" y1="676" x2="1289" y2="702" stroke="#ffd0a0" stroke-width="0.8" opacity="0.6"/>
    <line x1="1276" y1="689" x2="1302" y2="689" stroke="#ffd0a0" stroke-width="0.8" opacity="0.6"/>
    <!-- 별 7 -->
    <circle cx="89" cy="567" r="3" fill="#e8d5ff" opacity="1"/>
    <line x1="89" y1="556" x2="89" y2="578" stroke="#e8d5ff" stroke-width="0.7" opacity="0.5"/>
    <line x1="78" y1="567" x2="100" y2="567" stroke="#e8d5ff" stroke-width="0.7" opacity="0.5"/>
    <!-- 별 8 -->
    <circle cx="1756" cy="845" r="3.5" fill="#a0c8ff" opacity="1"/>
    <line x1="1756" y1="832" x2="1756" y2="858" stroke="#a0c8ff" stroke-width="0.8" opacity="0.6"/>
    <line x1="1743" y1="845" x2="1769" y2="845" stroke="#a0c8ff" stroke-width="0.8" opacity="0.6"/>
  </g>

  <!-- 별자리들 -->
  <g filter="url(#glow-sm)" opacity="0.85">

    <!-- 북두칠성 (큰곰자리) -->
    <circle cx="180" cy="110" r="2.5" fill="#e8d5ff"/>
    <circle cx="248" cy="88" r="2" fill="#e8d5ff"/>
    <circle cx="316" cy="82" r="2.5" fill="#e8d5ff"/>
    <circle cx="382" cy="98" r="2" fill="#e8d5ff"/>
    <circle cx="428" cy="148" r="2.5" fill="#e8d5ff"/>
    <circle cx="398" cy="202" r="2" fill="#e8d5ff"/>
    <circle cx="334" cy="214" r="2.5" fill="#e8d5ff"/>
    <g stroke="#c4b5fd" stroke-width="0.7" opacity="0.55">
      <line x1="180" y1="110" x2="248" y2="88"/>
      <line x1="248" y1="88" x2="316" y2="82"/>
      <line x1="316" y1="82" x2="382" y2="98"/>
      <line x1="382" y1="98" x2="428" y2="148"/>
      <line x1="428" y1="148" x2="398" y2="202"/>
      <line x1="398" y1="202" x2="334" y2="214"/>
    </g>

    <!-- 카시오페이아 -->
    <circle cx="890" cy="48" r="2.2" fill="#e8d5ff"/>
    <circle cx="948" cy="82" r="2" fill="#e8d5ff"/>
    <circle cx="1006" cy="52" r="2.5" fill="#e8d5ff"/>
    <circle cx="1064" cy="76" r="2" fill="#e8d5ff"/>
    <circle cx="1122" cy="42" r="2.2" fill="#e8d5ff"/>
    <g stroke="#c4b5fd" stroke-width="0.7" opacity="0.55">
      <line x1="890" y1="48" x2="948" y2="82"/>
      <line x1="948" y1="82" x2="1006" y2="52"/>
      <line x1="1006" y1="52" x2="1064" y2="76"/>
      <line x1="1064" y1="76" x2="1122" y2="42"/>
    </g>

    <!-- 오리온자리 -->
    <circle cx="1500" cy="72" r="3" fill="#ffd0a0"/>
    <circle cx="1568" cy="52" r="2.2" fill="#e8d5ff"/>
    <circle cx="1636" cy="68" r="2.5" fill="#a0c8ff"/>
    <circle cx="1478" cy="158" r="2" fill="#e8d5ff"/>
    <circle cx="1546" cy="152" r="2.5" fill="#e8d5ff"/>
    <circle cx="1614" cy="148" r="2" fill="#e8d5ff"/>
    <circle cx="1516" cy="238" r="2.2" fill="#a0c8ff"/>
    <circle cx="1584" cy="248" r="3" fill="#a0c8ff"/>
    <!-- 허리띠 3별 -->
    <circle cx="1512" cy="190" r="1.8" fill="#fff"/>
    <circle cx="1546" cy="188" r="1.8" fill="#fff"/>
    <circle cx="1580" cy="186" r="1.8" fill="#fff"/>
    <g stroke="#c4b5fd" stroke-width="0.7" opacity="0.55">
      <line x1="1500" y1="72" x2="1478" y2="158"/>
      <line x1="1636" y1="68" x2="1614" y2="148"/>
      <line x1="1568" y1="52" x2="1546" y2="152"/>
      <line x1="1478" y1="158" x2="1546" y2="152"/>
      <line x1="1546" y1="152" x2="1614" y2="148"/>
      <line x1="1478" y1="158" x2="1516" y2="238"/>
      <line x1="1614" y1="148" x2="1584" y2="248"/>
      <line x1="1512" y1="190" x2="1546" y2="188"/>
      <line x1="1546" y1="188" x2="1580" y2="186"/>
    </g>

    <!-- 전갈자리 -->
    <circle cx="1660" cy="620" r="3" fill="#ff9060"/>
    <circle cx="1700" cy="648" r="2" fill="#e8d5ff"/>
    <circle cx="1728" cy="682" r="2.2" fill="#e8d5ff"/>
    <circle cx="1744" cy="722" r="2" fill="#e8d5ff"/>
    <circle cx="1736" cy="762" r="2.2" fill="#e8d5ff"/>
    <circle cx="1712" cy="796" r="2" fill="#e8d5ff"/>
    <circle cx="1682" cy="814" r="2.2" fill="#e8d5ff"/>
    <circle cx="1658" cy="798" r="2" fill="#e8d5ff"/>
    <circle cx="1648" cy="772" r="2.2" fill="#e8d5ff"/>
    <g stroke="#c4b5fd" stroke-width="0.7" opacity="0.55">
      <line x1="1660" y1="620" x2="1700" y2="648"/>
      <line x1="1700" y1="648" x2="1728" y2="682"/>
      <line x1="1728" y1="682" x2="1744" y2="722"/>
      <line x1="1744" y1="722" x2="1736" y2="762"/>
      <line x1="1736" y1="762" x2="1712" y2="796"/>
      <line x1="1712" y1="796" x2="1682" y2="814"/>
      <line x1="1682" y1="814" x2="1658" y2="798"/>
      <line x1="1658" y1="798" x2="1648" y2="772"/>
    </g>

    <!-- 사자자리 -->
    <circle cx="600" cy="380" r="2.8" fill="#ffd0a0"/>
    <circle cx="648" cy="342" r="2" fill="#e8d5ff"/>
    <circle cx="702" cy="328" r="2.2" fill="#e8d5ff"/>
    <circle cx="748" cy="348" r="2" fill="#e8d5ff"/>
    <circle cx="762" cy="398" r="2.2" fill="#e8d5ff"/>
    <circle cx="738" cy="448" r="2" fill="#e8d5ff"/>
    <circle cx="842" cy="428" r="2.5" fill="#e8d5ff"/>
    <g stroke="#c4b5fd" stroke-width="0.7" opacity="0.55">
      <line x1="600" y1="380" x2="648" y2="342"/>
      <line x1="648" y1="342" x2="702" y2="328"/>
      <line x1="702" y1="328" x2="748" y2="348"/>
      <line x1="748" y1="348" x2="762" y2="398"/>
      <line x1="762" y1="398" x2="738" y2="448"/>
      <line x1="762" y1="398" x2="842" y2="428"/>
      <line x1="600" y1="380" x2="762" y2="398"/>
    </g>

    <!-- 거문고자리 (베가) -->
    <circle cx="320" cy="580" r="3.2" fill="#a0c8ff"/>
    <circle cx="364" cy="612" r="1.8" fill="#e8d5ff"/>
    <circle cx="358" cy="648" r="1.8" fill="#e8d5ff"/>
    <circle cx="384" cy="638" r="1.8" fill="#e8d5ff"/>
    <circle cx="390" cy="604" r="1.8" fill="#e8d5ff"/>
    <g stroke="#c4b5fd" stroke-width="0.7" opacity="0.55">
      <line x1="320" y1="580" x2="364" y2="612"/>
      <line x1="364" y1="612" x2="358" y2="648"/>
      <line x1="358" y1="648" x2="384" y2="638"/>
      <line x1="384" y1="638" x2="390" y2="604"/>
      <line x1="390" y1="604" x2="364" y2="612"/>
    </g>

    <!-- 백조자리 (데네브) -->
    <circle cx="490" cy="520" r="2.8" fill="#fff"/>
    <circle cx="530" cy="568" r="2" fill="#e8d5ff"/>
    <circle cx="570" cy="616" r="2.2" fill="#e8d5ff"/>
    <circle cx="610" cy="664" r="2" fill="#e8d5ff"/>
    <circle cx="440" cy="548" r="1.8" fill="#e8d5ff"/>
    <circle cx="618" cy="534" r="1.8" fill="#e8d5ff"/>
    <g stroke="#c4b5fd" stroke-width="0.7" opacity="0.55">
      <line x1="490" y1="520" x2="610" y2="664"/>
      <line x1="440" y1="548" x2="618" y2="534"/>
    </g>
  </g>
</svg>
